<mxfile host="app.diagrams.net" modified="2020-04-02T16:20:54.650Z" agent="5.0 (Windows)" etag="Y0FMZu_jQz99x0Hz7Whq" version="12.9.6" type="github">
  <diagram id="FoXHVSJyHW5h0L9yU_9n" name="Page-1">
    <mxGraphModel dx="3671" dy="1582" grid="1" gridSize="10" guides="1" tooltips="1" connect="1" arrows="1" fold="1" page="1" pageScale="1" pageWidth="827" pageHeight="1169" math="0" shadow="0">
      <root>
        <mxCell id="0" />
        <mxCell id="1" parent="0" />
        <mxCell id="78NTTjYcPwEvx9lAIoIe-51" value="" style="edgeStyle=orthogonalEdgeStyle;rounded=0;orthogonalLoop=1;jettySize=auto;html=1;endArrow=none;endFill=0;strokeColor=#B3B3B3;" edge="1" parent="1" source="wSKS0dLSjuZj5_SLKuEP-1" target="wSKS0dLSjuZj5_SLKuEP-2">
          <mxGeometry relative="1" as="geometry" />
        </mxCell>
        <mxCell id="wSKS0dLSjuZj5_SLKuEP-1" value="Utente" style="whiteSpace=wrap;html=1;align=center;" parent="1" vertex="1">
          <mxGeometry x="40" y="50" width="100" height="40" as="geometry" />
        </mxCell>
        <mxCell id="78NTTjYcPwEvx9lAIoIe-52" value="" style="edgeStyle=orthogonalEdgeStyle;rounded=0;orthogonalLoop=1;jettySize=auto;html=1;endArrow=none;endFill=0;strokeColor=#B3B3B3;" edge="1" parent="1" source="wSKS0dLSjuZj5_SLKuEP-2" target="wSKS0dLSjuZj5_SLKuEP-3">
          <mxGeometry relative="1" as="geometry" />
        </mxCell>
        <mxCell id="wSKS0dLSjuZj5_SLKuEP-2" value="possiede" style="shape=rhombus;perimeter=rhombusPerimeter;whiteSpace=wrap;html=1;align=center;" parent="1" vertex="1">
          <mxGeometry x="210" y="40" width="120" height="60" as="geometry" />
        </mxCell>
        <mxCell id="78NTTjYcPwEvx9lAIoIe-53" value="" style="edgeStyle=orthogonalEdgeStyle;rounded=0;orthogonalLoop=1;jettySize=auto;html=1;endArrow=none;endFill=0;strokeColor=#B3B3B3;" edge="1" parent="1" source="wSKS0dLSjuZj5_SLKuEP-3" target="wSKS0dLSjuZj5_SLKuEP-14">
          <mxGeometry relative="1" as="geometry" />
        </mxCell>
        <mxCell id="wSKS0dLSjuZj5_SLKuEP-3" value="Elemento" style="whiteSpace=wrap;html=1;align=center;" parent="1" vertex="1">
          <mxGeometry x="400" y="50" width="100" height="40" as="geometry" />
        </mxCell>
        <mxCell id="wSKS0dLSjuZj5_SLKuEP-4" style="edgeStyle=orthogonalEdgeStyle;rounded=0;orthogonalLoop=1;jettySize=auto;html=1;exitX=0.5;exitY=0;exitDx=0;exitDy=0;entryX=0.5;entryY=1;entryDx=0;entryDy=0;strokeColor=#0000FF;" parent="1" source="wSKS0dLSjuZj5_SLKuEP-5" target="wSKS0dLSjuZj5_SLKuEP-3" edge="1">
          <mxGeometry relative="1" as="geometry">
            <Array as="points">
              <mxPoint x="-250" y="140" />
              <mxPoint x="450" y="140" />
            </Array>
          </mxGeometry>
        </mxCell>
        <mxCell id="78NTTjYcPwEvx9lAIoIe-1" value="" style="edgeStyle=orthogonalEdgeStyle;rounded=0;orthogonalLoop=1;jettySize=auto;html=1;endArrow=none;endFill=0;strokeColor=#B3B3B3;" edge="1" parent="1" source="wSKS0dLSjuZj5_SLKuEP-5" target="wSKS0dLSjuZj5_SLKuEP-21">
          <mxGeometry relative="1" as="geometry" />
        </mxCell>
        <mxCell id="wSKS0dLSjuZj5_SLKuEP-5" value="Elemento (libro)" style="whiteSpace=wrap;html=1;align=center;" parent="1" vertex="1">
          <mxGeometry x="-300" y="200" width="100" height="40" as="geometry" />
        </mxCell>
        <mxCell id="wSKS0dLSjuZj5_SLKuEP-6" style="edgeStyle=orthogonalEdgeStyle;rounded=0;orthogonalLoop=1;jettySize=auto;html=1;exitX=0.5;exitY=0;exitDx=0;exitDy=0;entryX=0.5;entryY=1;entryDx=0;entryDy=0;strokeColor=#0000FF;" parent="1" source="wSKS0dLSjuZj5_SLKuEP-7" target="wSKS0dLSjuZj5_SLKuEP-3" edge="1">
          <mxGeometry relative="1" as="geometry" />
        </mxCell>
        <mxCell id="78NTTjYcPwEvx9lAIoIe-19" value="" style="edgeStyle=orthogonalEdgeStyle;rounded=0;orthogonalLoop=1;jettySize=auto;html=1;endArrow=none;endFill=0;strokeColor=#B3B3B3;" edge="1" parent="1" source="wSKS0dLSjuZj5_SLKuEP-7" target="9WjfIcomwn0SEq8MoQgZ-76">
          <mxGeometry relative="1" as="geometry" />
        </mxCell>
        <mxCell id="wSKS0dLSjuZj5_SLKuEP-7" value="Elemento (film)" style="whiteSpace=wrap;html=1;align=center;" parent="1" vertex="1">
          <mxGeometry x="400" y="200" width="100" height="40" as="geometry" />
        </mxCell>
        <mxCell id="wSKS0dLSjuZj5_SLKuEP-8" style="edgeStyle=orthogonalEdgeStyle;rounded=0;orthogonalLoop=1;jettySize=auto;html=1;entryX=0.5;entryY=1;entryDx=0;entryDy=0;strokeColor=#0000FF;" parent="1" source="wSKS0dLSjuZj5_SLKuEP-9" target="wSKS0dLSjuZj5_SLKuEP-3" edge="1">
          <mxGeometry relative="1" as="geometry">
            <mxPoint x="550" y="100" as="targetPoint" />
            <Array as="points">
              <mxPoint x="1160" y="140" />
              <mxPoint x="450" y="140" />
            </Array>
          </mxGeometry>
        </mxCell>
        <mxCell id="78NTTjYcPwEvx9lAIoIe-37" style="edgeStyle=orthogonalEdgeStyle;rounded=0;orthogonalLoop=1;jettySize=auto;html=1;entryX=0.5;entryY=0;entryDx=0;entryDy=0;endArrow=none;endFill=0;strokeColor=#B3B3B3;" edge="1" parent="1" source="wSKS0dLSjuZj5_SLKuEP-9" target="9WjfIcomwn0SEq8MoQgZ-11">
          <mxGeometry relative="1" as="geometry" />
        </mxCell>
        <mxCell id="wSKS0dLSjuZj5_SLKuEP-9" value="Elemento (gioco)" style="whiteSpace=wrap;html=1;align=center;" parent="1" vertex="1">
          <mxGeometry x="1110" y="190" width="100" height="40" as="geometry" />
        </mxCell>
        <mxCell id="78NTTjYcPwEvx9lAIoIe-54" value="" style="edgeStyle=orthogonalEdgeStyle;rounded=0;orthogonalLoop=1;jettySize=auto;html=1;endArrow=none;endFill=0;strokeColor=#B3B3B3;" edge="1" parent="1" source="wSKS0dLSjuZj5_SLKuEP-14" target="wSKS0dLSjuZj5_SLKuEP-15">
          <mxGeometry relative="1" as="geometry" />
        </mxCell>
        <mxCell id="wSKS0dLSjuZj5_SLKuEP-14" value="riguardante" style="shape=rhombus;perimeter=rhombusPerimeter;whiteSpace=wrap;html=1;align=center;" parent="1" vertex="1">
          <mxGeometry x="570" y="40" width="120" height="60" as="geometry" />
        </mxCell>
        <mxCell id="wSKS0dLSjuZj5_SLKuEP-15" value="Recensione" style="whiteSpace=wrap;html=1;align=center;" parent="1" vertex="1">
          <mxGeometry x="760" y="50" width="100" height="40" as="geometry" />
        </mxCell>
        <mxCell id="78NTTjYcPwEvx9lAIoIe-4" value="" style="edgeStyle=orthogonalEdgeStyle;rounded=0;orthogonalLoop=1;jettySize=auto;html=1;endArrow=none;endFill=0;strokeColor=#B3B3B3;" edge="1" parent="1" source="wSKS0dLSjuZj5_SLKuEP-20" target="wSKS0dLSjuZj5_SLKuEP-52">
          <mxGeometry relative="1" as="geometry" />
        </mxCell>
        <mxCell id="78NTTjYcPwEvx9lAIoIe-5" value="" style="edgeStyle=orthogonalEdgeStyle;rounded=0;orthogonalLoop=1;jettySize=auto;html=1;endArrow=none;endFill=0;strokeColor=#B3B3B3;" edge="1" parent="1" source="wSKS0dLSjuZj5_SLKuEP-20" target="wSKS0dLSjuZj5_SLKuEP-37">
          <mxGeometry relative="1" as="geometry" />
        </mxCell>
        <mxCell id="wSKS0dLSjuZj5_SLKuEP-20" value="Edizione" style="whiteSpace=wrap;html=1;align=center;" parent="1" vertex="1">
          <mxGeometry x="-300" y="390" width="100" height="40" as="geometry" />
        </mxCell>
        <mxCell id="78NTTjYcPwEvx9lAIoIe-3" value="" style="edgeStyle=orthogonalEdgeStyle;rounded=0;orthogonalLoop=1;jettySize=auto;html=1;endArrow=none;endFill=0;strokeColor=#B3B3B3;" edge="1" parent="1" source="wSKS0dLSjuZj5_SLKuEP-21" target="wSKS0dLSjuZj5_SLKuEP-20">
          <mxGeometry relative="1" as="geometry" />
        </mxCell>
        <mxCell id="wSKS0dLSjuZj5_SLKuEP-21" value="istanza di" style="shape=rhombus;perimeter=rhombusPerimeter;whiteSpace=wrap;html=1;align=center;" parent="1" vertex="1">
          <mxGeometry x="-310" y="280" width="120" height="60" as="geometry" />
        </mxCell>
        <mxCell id="wSKS0dLSjuZj5_SLKuEP-30" style="edgeStyle=orthogonalEdgeStyle;rounded=0;orthogonalLoop=1;jettySize=auto;html=1;entryX=0;entryY=0.5;entryDx=0;entryDy=0;strokeColor=#0000FF;" parent="1" source="wSKS0dLSjuZj5_SLKuEP-22" target="wSKS0dLSjuZj5_SLKuEP-20" edge="1">
          <mxGeometry relative="1" as="geometry">
            <Array as="points">
              <mxPoint x="-350" y="370" />
              <mxPoint x="-350" y="410" />
            </Array>
          </mxGeometry>
        </mxCell>
        <mxCell id="wSKS0dLSjuZj5_SLKuEP-22" value="Edizione (libro)" style="whiteSpace=wrap;html=1;align=center;" parent="1" vertex="1">
          <mxGeometry x="-490" y="350" width="100" height="40" as="geometry" />
        </mxCell>
        <mxCell id="78NTTjYcPwEvx9lAIoIe-14" value="" style="edgeStyle=orthogonalEdgeStyle;rounded=0;orthogonalLoop=1;jettySize=auto;html=1;endArrow=none;endFill=0;strokeColor=#B3B3B3;" edge="1" parent="1" source="wSKS0dLSjuZj5_SLKuEP-23" target="wSKS0dLSjuZj5_SLKuEP-61">
          <mxGeometry relative="1" as="geometry" />
        </mxCell>
        <mxCell id="wSKS0dLSjuZj5_SLKuEP-23" value="Edizione (audiolibro)" style="whiteSpace=wrap;html=1;align=center;" parent="1" vertex="1">
          <mxGeometry x="-490" y="430" width="100" height="40" as="geometry" />
        </mxCell>
        <mxCell id="wSKS0dLSjuZj5_SLKuEP-34" style="edgeStyle=orthogonalEdgeStyle;rounded=0;orthogonalLoop=1;jettySize=auto;html=1;entryX=0;entryY=0.5;entryDx=0;entryDy=0;exitX=1;exitY=0.5;exitDx=0;exitDy=0;strokeColor=#0000FF;" parent="1" source="wSKS0dLSjuZj5_SLKuEP-23" target="wSKS0dLSjuZj5_SLKuEP-20" edge="1">
          <mxGeometry relative="1" as="geometry">
            <mxPoint x="-140" y="490" as="sourcePoint" />
            <mxPoint x="-90" y="380" as="targetPoint" />
            <Array as="points">
              <mxPoint x="-350" y="450" />
              <mxPoint x="-350" y="410" />
            </Array>
          </mxGeometry>
        </mxCell>
        <mxCell id="78NTTjYcPwEvx9lAIoIe-13" style="edgeStyle=orthogonalEdgeStyle;rounded=0;orthogonalLoop=1;jettySize=auto;html=1;entryX=0;entryY=0.5;entryDx=0;entryDy=0;endArrow=none;endFill=0;strokeColor=#B3B3B3;" edge="1" parent="1" source="wSKS0dLSjuZj5_SLKuEP-36" target="3FT5CN3qB7AC9nDapubh-27">
          <mxGeometry relative="1" as="geometry" />
        </mxCell>
        <mxCell id="78NTTjYcPwEvx9lAIoIe-16" value="" style="edgeStyle=orthogonalEdgeStyle;rounded=0;orthogonalLoop=1;jettySize=auto;html=1;endArrow=none;endFill=0;strokeColor=#B3B3B3;" edge="1" parent="1" source="wSKS0dLSjuZj5_SLKuEP-36" target="wSKS0dLSjuZj5_SLKuEP-43">
          <mxGeometry relative="1" as="geometry" />
        </mxCell>
        <mxCell id="wSKS0dLSjuZj5_SLKuEP-36" value="Libro" style="whiteSpace=wrap;html=1;align=center;" parent="1" vertex="1">
          <mxGeometry x="-300" y="550" width="100" height="40" as="geometry" />
        </mxCell>
        <mxCell id="78NTTjYcPwEvx9lAIoIe-12" style="edgeStyle=orthogonalEdgeStyle;rounded=0;orthogonalLoop=1;jettySize=auto;html=1;entryX=0.5;entryY=0;entryDx=0;entryDy=0;endArrow=none;endFill=0;strokeColor=#B3B3B3;" edge="1" parent="1" source="wSKS0dLSjuZj5_SLKuEP-37" target="wSKS0dLSjuZj5_SLKuEP-36">
          <mxGeometry relative="1" as="geometry" />
        </mxCell>
        <mxCell id="wSKS0dLSjuZj5_SLKuEP-37" value="relativa a" style="shape=rhombus;perimeter=rhombusPerimeter;whiteSpace=wrap;html=1;align=center;" parent="1" vertex="1">
          <mxGeometry x="-310" y="460" width="120" height="60" as="geometry" />
        </mxCell>
        <mxCell id="wSKS0dLSjuZj5_SLKuEP-42" value="Autore" style="whiteSpace=wrap;html=1;align=center;" parent="1" vertex="1">
          <mxGeometry x="-300" y="740" width="100" height="40" as="geometry" />
        </mxCell>
        <mxCell id="78NTTjYcPwEvx9lAIoIe-17" value="" style="edgeStyle=orthogonalEdgeStyle;rounded=0;orthogonalLoop=1;jettySize=auto;html=1;endArrow=none;endFill=0;strokeColor=#B3B3B3;" edge="1" parent="1" source="wSKS0dLSjuZj5_SLKuEP-43" target="wSKS0dLSjuZj5_SLKuEP-42">
          <mxGeometry relative="1" as="geometry" />
        </mxCell>
        <mxCell id="wSKS0dLSjuZj5_SLKuEP-43" value="Scritto da" style="shape=rhombus;perimeter=rhombusPerimeter;whiteSpace=wrap;html=1;align=center;" parent="1" vertex="1">
          <mxGeometry x="-310" y="640" width="120" height="60" as="geometry" />
        </mxCell>
        <mxCell id="78NTTjYcPwEvx9lAIoIe-9" value="" style="edgeStyle=orthogonalEdgeStyle;rounded=0;orthogonalLoop=1;jettySize=auto;html=1;endArrow=none;endFill=0;strokeColor=#B3B3B3;entryX=0.5;entryY=0;entryDx=0;entryDy=0;" edge="1" parent="1" source="wSKS0dLSjuZj5_SLKuEP-52" target="wSKS0dLSjuZj5_SLKuEP-53">
          <mxGeometry relative="1" as="geometry">
            <mxPoint x="-80" y="520" as="targetPoint" />
          </mxGeometry>
        </mxCell>
        <mxCell id="wSKS0dLSjuZj5_SLKuEP-52" value="pubblicata da" style="shape=rhombus;perimeter=rhombusPerimeter;whiteSpace=wrap;html=1;align=center;" parent="1" vertex="1">
          <mxGeometry x="-140" y="380" width="120" height="60" as="geometry" />
        </mxCell>
        <mxCell id="wSKS0dLSjuZj5_SLKuEP-53" value="Editore" style="whiteSpace=wrap;html=1;align=center;" parent="1" vertex="1">
          <mxGeometry x="-130" y="470" width="100" height="40" as="geometry" />
        </mxCell>
        <mxCell id="78NTTjYcPwEvx9lAIoIe-15" value="" style="edgeStyle=orthogonalEdgeStyle;rounded=0;orthogonalLoop=1;jettySize=auto;html=1;endArrow=none;endFill=0;strokeColor=#B3B3B3;" edge="1" parent="1" source="wSKS0dLSjuZj5_SLKuEP-61" target="wSKS0dLSjuZj5_SLKuEP-62">
          <mxGeometry relative="1" as="geometry" />
        </mxCell>
        <mxCell id="wSKS0dLSjuZj5_SLKuEP-61" value="narrata da" style="shape=rhombus;perimeter=rhombusPerimeter;whiteSpace=wrap;html=1;align=center;strokeColor=#000000;" parent="1" vertex="1">
          <mxGeometry x="-500" y="520" width="120" height="60" as="geometry" />
        </mxCell>
        <mxCell id="wSKS0dLSjuZj5_SLKuEP-62" value="Narratore" style="whiteSpace=wrap;html=1;align=center;strokeColor=#000000;" parent="1" vertex="1">
          <mxGeometry x="-490" y="620" width="100" height="40" as="geometry" />
        </mxCell>
        <mxCell id="78NTTjYcPwEvx9lAIoIe-39" value="" style="edgeStyle=orthogonalEdgeStyle;rounded=0;orthogonalLoop=1;jettySize=auto;html=1;endArrow=none;endFill=0;strokeColor=#B3B3B3;" edge="1" parent="1" source="9WjfIcomwn0SEq8MoQgZ-2" target="3FT5CN3qB7AC9nDapubh-77">
          <mxGeometry relative="1" as="geometry" />
        </mxCell>
        <mxCell id="78NTTjYcPwEvx9lAIoIe-40" style="edgeStyle=orthogonalEdgeStyle;rounded=0;orthogonalLoop=1;jettySize=auto;html=1;entryX=0.5;entryY=0;entryDx=0;entryDy=0;endArrow=none;endFill=0;strokeColor=#B3B3B3;" edge="1" parent="1" source="9WjfIcomwn0SEq8MoQgZ-2" target="9WjfIcomwn0SEq8MoQgZ-49">
          <mxGeometry relative="1" as="geometry" />
        </mxCell>
        <mxCell id="9WjfIcomwn0SEq8MoQgZ-2" value="Edizione" style="whiteSpace=wrap;html=1;align=center;" parent="1" vertex="1">
          <mxGeometry x="1110" y="380" width="100" height="40" as="geometry" />
        </mxCell>
        <mxCell id="9WjfIcomwn0SEq8MoQgZ-3" value="Genere" style="whiteSpace=wrap;html=1;align=center;" parent="1" vertex="1">
          <mxGeometry x="1110" y="750" width="100" height="40" as="geometry" />
        </mxCell>
        <mxCell id="78NTTjYcPwEvx9lAIoIe-43" style="edgeStyle=orthogonalEdgeStyle;rounded=0;orthogonalLoop=1;jettySize=auto;html=1;exitX=1;exitY=0.5;exitDx=0;exitDy=0;entryX=0;entryY=0.75;entryDx=0;entryDy=0;endArrow=none;endFill=0;strokeColor=#B3B3B3;" edge="1" parent="1" source="9WjfIcomwn0SEq8MoQgZ-8" target="3FT5CN3qB7AC9nDapubh-80">
          <mxGeometry relative="1" as="geometry" />
        </mxCell>
        <mxCell id="9WjfIcomwn0SEq8MoQgZ-8" value="pubblicato da" style="shape=rhombus;perimeter=rhombusPerimeter;whiteSpace=wrap;html=1;align=center;" parent="1" vertex="1">
          <mxGeometry x="1290" y="610" width="120" height="60" as="geometry" />
        </mxCell>
        <mxCell id="78NTTjYcPwEvx9lAIoIe-47" style="edgeStyle=orthogonalEdgeStyle;rounded=0;orthogonalLoop=1;jettySize=auto;html=1;exitX=0.5;exitY=1;exitDx=0;exitDy=0;entryX=0.5;entryY=0;entryDx=0;entryDy=0;endArrow=none;endFill=0;strokeColor=#B3B3B3;" edge="1" parent="1" source="9WjfIcomwn0SEq8MoQgZ-9" target="9WjfIcomwn0SEq8MoQgZ-3">
          <mxGeometry relative="1" as="geometry" />
        </mxCell>
        <mxCell id="9WjfIcomwn0SEq8MoQgZ-9" value="appartiene a" style="shape=rhombus;perimeter=rhombusPerimeter;whiteSpace=wrap;html=1;align=center;" parent="1" vertex="1">
          <mxGeometry x="1100" y="650" width="120" height="60" as="geometry" />
        </mxCell>
        <mxCell id="78NTTjYcPwEvx9lAIoIe-42" style="edgeStyle=orthogonalEdgeStyle;rounded=0;orthogonalLoop=1;jettySize=auto;html=1;exitX=1;exitY=0.5;exitDx=0;exitDy=0;entryX=0;entryY=0.5;entryDx=0;entryDy=0;endArrow=none;endFill=0;strokeColor=#B3B3B3;" edge="1" parent="1" source="9WjfIcomwn0SEq8MoQgZ-10" target="3FT5CN3qB7AC9nDapubh-80">
          <mxGeometry relative="1" as="geometry" />
        </mxCell>
        <mxCell id="9WjfIcomwn0SEq8MoQgZ-10" value="&lt;div&gt;sviluppato da&lt;/div&gt;" style="shape=rhombus;perimeter=rhombusPerimeter;whiteSpace=wrap;html=1;align=center;" parent="1" vertex="1">
          <mxGeometry x="1290" y="520" width="120" height="60" as="geometry" />
        </mxCell>
        <mxCell id="78NTTjYcPwEvx9lAIoIe-38" style="edgeStyle=orthogonalEdgeStyle;rounded=0;orthogonalLoop=1;jettySize=auto;html=1;endArrow=none;endFill=0;strokeColor=#B3B3B3;" edge="1" parent="1" source="9WjfIcomwn0SEq8MoQgZ-11" target="9WjfIcomwn0SEq8MoQgZ-2">
          <mxGeometry relative="1" as="geometry" />
        </mxCell>
        <mxCell id="9WjfIcomwn0SEq8MoQgZ-11" value="istanza di" style="shape=rhombus;perimeter=rhombusPerimeter;whiteSpace=wrap;html=1;align=center;" parent="1" vertex="1">
          <mxGeometry x="1100" y="270" width="120" height="60" as="geometry" />
        </mxCell>
        <mxCell id="9WjfIcomwn0SEq8MoQgZ-37" value="Localizzazione" style="whiteSpace=wrap;html=1;align=center;" parent="1" vertex="1">
          <mxGeometry x="470" y="570" width="100" height="40" as="geometry" />
        </mxCell>
        <mxCell id="9WjfIcomwn0SEq8MoQgZ-38" value="Studio" style="whiteSpace=wrap;html=1;align=center;" parent="1" vertex="1">
          <mxGeometry x="200" y="480" width="100" height="40" as="geometry" />
        </mxCell>
        <mxCell id="9WjfIcomwn0SEq8MoQgZ-39" value="Ruolo" style="whiteSpace=wrap;html=1;align=center;" parent="1" vertex="1">
          <mxGeometry x="780" y="390" width="100" height="40" as="geometry" />
        </mxCell>
        <mxCell id="9WjfIcomwn0SEq8MoQgZ-40" value="Cast" style="whiteSpace=wrap;html=1;align=center;" parent="1" vertex="1">
          <mxGeometry x="610" y="480" width="100" height="40" as="geometry" />
        </mxCell>
        <mxCell id="9WjfIcomwn0SEq8MoQgZ-41" value="Genere" style="whiteSpace=wrap;html=1;align=center;" parent="1" vertex="1">
          <mxGeometry x="340" y="570" width="100" height="40" as="geometry" />
        </mxCell>
        <mxCell id="78NTTjYcPwEvx9lAIoIe-25" style="edgeStyle=orthogonalEdgeStyle;rounded=0;orthogonalLoop=1;jettySize=auto;html=1;entryX=0;entryY=0.5;entryDx=0;entryDy=0;endArrow=none;endFill=0;strokeColor=#B3B3B3;" edge="1" parent="1" source="9WjfIcomwn0SEq8MoQgZ-42" target="3FT5CN3qB7AC9nDapubh-24">
          <mxGeometry relative="1" as="geometry" />
        </mxCell>
        <mxCell id="78NTTjYcPwEvx9lAIoIe-28" style="edgeStyle=orthogonalEdgeStyle;rounded=0;orthogonalLoop=1;jettySize=auto;html=1;entryX=0.5;entryY=0;entryDx=0;entryDy=0;endArrow=none;endFill=0;strokeColor=#B3B3B3;exitX=0.25;exitY=1;exitDx=0;exitDy=0;" edge="1" parent="1" source="9WjfIcomwn0SEq8MoQgZ-42" target="9WjfIcomwn0SEq8MoQgZ-74">
          <mxGeometry relative="1" as="geometry" />
        </mxCell>
        <mxCell id="78NTTjYcPwEvx9lAIoIe-29" style="edgeStyle=orthogonalEdgeStyle;rounded=0;orthogonalLoop=1;jettySize=auto;html=1;exitX=0.75;exitY=1;exitDx=0;exitDy=0;entryX=0.5;entryY=0;entryDx=0;entryDy=0;endArrow=none;endFill=0;strokeColor=#B3B3B3;" edge="1" parent="1" source="9WjfIcomwn0SEq8MoQgZ-42" target="3FT5CN3qB7AC9nDapubh-45">
          <mxGeometry relative="1" as="geometry" />
        </mxCell>
        <mxCell id="78NTTjYcPwEvx9lAIoIe-35" style="edgeStyle=orthogonalEdgeStyle;rounded=0;orthogonalLoop=1;jettySize=auto;html=1;entryX=1;entryY=0.5;entryDx=0;entryDy=0;endArrow=none;endFill=0;strokeColor=#B3B3B3;" edge="1" parent="1" source="9WjfIcomwn0SEq8MoQgZ-42" target="9WjfIcomwn0SEq8MoQgZ-75">
          <mxGeometry relative="1" as="geometry" />
        </mxCell>
        <mxCell id="9WjfIcomwn0SEq8MoQgZ-42" value="Film" style="whiteSpace=wrap;html=1;align=center;" parent="1" vertex="1">
          <mxGeometry x="400" y="390" width="100" height="40" as="geometry" />
        </mxCell>
        <mxCell id="78NTTjYcPwEvx9lAIoIe-45" style="edgeStyle=orthogonalEdgeStyle;rounded=0;orthogonalLoop=1;jettySize=auto;html=1;exitX=1;exitY=0.25;exitDx=0;exitDy=0;entryX=0;entryY=0.5;entryDx=0;entryDy=0;endArrow=none;endFill=0;strokeColor=#B3B3B3;" edge="1" parent="1" source="9WjfIcomwn0SEq8MoQgZ-48" target="9WjfIcomwn0SEq8MoQgZ-10">
          <mxGeometry relative="1" as="geometry" />
        </mxCell>
        <mxCell id="78NTTjYcPwEvx9lAIoIe-46" style="edgeStyle=orthogonalEdgeStyle;rounded=0;orthogonalLoop=1;jettySize=auto;html=1;exitX=1;exitY=0.75;exitDx=0;exitDy=0;entryX=0;entryY=0.5;entryDx=0;entryDy=0;endArrow=none;endFill=0;strokeColor=#B3B3B3;" edge="1" parent="1" source="9WjfIcomwn0SEq8MoQgZ-48" target="9WjfIcomwn0SEq8MoQgZ-8">
          <mxGeometry relative="1" as="geometry" />
        </mxCell>
        <mxCell id="78NTTjYcPwEvx9lAIoIe-48" style="edgeStyle=orthogonalEdgeStyle;rounded=0;orthogonalLoop=1;jettySize=auto;html=1;entryX=0.5;entryY=0;entryDx=0;entryDy=0;endArrow=none;endFill=0;strokeColor=#B3B3B3;" edge="1" parent="1" source="9WjfIcomwn0SEq8MoQgZ-48" target="9WjfIcomwn0SEq8MoQgZ-9">
          <mxGeometry relative="1" as="geometry" />
        </mxCell>
        <mxCell id="9WjfIcomwn0SEq8MoQgZ-48" value="Gioco" style="whiteSpace=wrap;html=1;align=center;" parent="1" vertex="1">
          <mxGeometry x="1110" y="570" width="100" height="40" as="geometry" />
        </mxCell>
        <mxCell id="9WjfIcomwn0SEq8MoQgZ-49" value="relativa a" style="shape=rhombus;perimeter=rhombusPerimeter;whiteSpace=wrap;html=1;align=center;" parent="1" vertex="1">
          <mxGeometry x="1100" y="460" width="120" height="60" as="geometry" />
        </mxCell>
        <mxCell id="78NTTjYcPwEvx9lAIoIe-30" value="" style="edgeStyle=orthogonalEdgeStyle;rounded=0;orthogonalLoop=1;jettySize=auto;html=1;endArrow=none;endFill=0;strokeColor=#B3B3B3;" edge="1" parent="1" source="9WjfIcomwn0SEq8MoQgZ-74" target="9WjfIcomwn0SEq8MoQgZ-41">
          <mxGeometry relative="1" as="geometry" />
        </mxCell>
        <mxCell id="9WjfIcomwn0SEq8MoQgZ-74" value="appartiene a" style="shape=rhombus;perimeter=rhombusPerimeter;whiteSpace=wrap;html=1;align=center;" parent="1" vertex="1">
          <mxGeometry x="330" y="470" width="120" height="60" as="geometry" />
        </mxCell>
        <mxCell id="78NTTjYcPwEvx9lAIoIe-36" style="edgeStyle=orthogonalEdgeStyle;rounded=0;orthogonalLoop=1;jettySize=auto;html=1;entryX=0.5;entryY=0;entryDx=0;entryDy=0;endArrow=none;endFill=0;strokeColor=#B3B3B3;" edge="1" parent="1" source="9WjfIcomwn0SEq8MoQgZ-75" target="9WjfIcomwn0SEq8MoQgZ-38">
          <mxGeometry relative="1" as="geometry" />
        </mxCell>
        <mxCell id="9WjfIcomwn0SEq8MoQgZ-75" value="prodotto da" style="shape=rhombus;perimeter=rhombusPerimeter;whiteSpace=wrap;html=1;align=center;" parent="1" vertex="1">
          <mxGeometry x="190" y="380" width="120" height="60" as="geometry" />
        </mxCell>
        <mxCell id="78NTTjYcPwEvx9lAIoIe-20" value="" style="edgeStyle=orthogonalEdgeStyle;rounded=0;orthogonalLoop=1;jettySize=auto;html=1;endArrow=none;endFill=0;strokeColor=#B3B3B3;" edge="1" parent="1" source="9WjfIcomwn0SEq8MoQgZ-76" target="9WjfIcomwn0SEq8MoQgZ-42">
          <mxGeometry relative="1" as="geometry" />
        </mxCell>
        <mxCell id="9WjfIcomwn0SEq8MoQgZ-76" value="istanza di" style="shape=rhombus;perimeter=rhombusPerimeter;whiteSpace=wrap;html=1;align=center;" parent="1" vertex="1">
          <mxGeometry x="390" y="280" width="120" height="60" as="geometry" />
        </mxCell>
        <mxCell id="78NTTjYcPwEvx9lAIoIe-26" style="edgeStyle=orthogonalEdgeStyle;rounded=0;orthogonalLoop=1;jettySize=auto;html=1;entryX=0.5;entryY=0;entryDx=0;entryDy=0;endArrow=none;endFill=0;strokeColor=#B3B3B3;" edge="1" parent="1" source="3FT5CN3qB7AC9nDapubh-24" target="9WjfIcomwn0SEq8MoQgZ-40">
          <mxGeometry relative="1" as="geometry" />
        </mxCell>
        <mxCell id="78NTTjYcPwEvx9lAIoIe-27" style="edgeStyle=orthogonalEdgeStyle;rounded=0;orthogonalLoop=1;jettySize=auto;html=1;entryX=0;entryY=0.5;entryDx=0;entryDy=0;endArrow=none;endFill=0;strokeColor=#B3B3B3;" edge="1" parent="1" source="3FT5CN3qB7AC9nDapubh-24" target="9WjfIcomwn0SEq8MoQgZ-39">
          <mxGeometry relative="1" as="geometry" />
        </mxCell>
        <mxCell id="3FT5CN3qB7AC9nDapubh-24" value="vi ha preso parte" style="shape=rhombus;perimeter=rhombusPerimeter;whiteSpace=wrap;html=1;align=center;strokeColor=#000000;" parent="1" vertex="1">
          <mxGeometry x="600" y="380" width="120" height="60" as="geometry" />
        </mxCell>
        <mxCell id="3FT5CN3qB7AC9nDapubh-26" value="Genere" style="whiteSpace=wrap;html=1;align=center;" parent="1" vertex="1">
          <mxGeometry x="-130" y="650" width="100" height="40" as="geometry" />
        </mxCell>
        <mxCell id="78NTTjYcPwEvx9lAIoIe-18" value="" style="edgeStyle=orthogonalEdgeStyle;rounded=0;orthogonalLoop=1;jettySize=auto;html=1;endArrow=none;endFill=0;strokeColor=#B3B3B3;" edge="1" parent="1" source="3FT5CN3qB7AC9nDapubh-27" target="3FT5CN3qB7AC9nDapubh-26">
          <mxGeometry relative="1" as="geometry" />
        </mxCell>
        <mxCell id="3FT5CN3qB7AC9nDapubh-27" value="appartiene a" style="shape=rhombus;perimeter=rhombusPerimeter;whiteSpace=wrap;html=1;align=center;" parent="1" vertex="1">
          <mxGeometry x="-140" y="540" width="120" height="60" as="geometry" />
        </mxCell>
        <mxCell id="78NTTjYcPwEvx9lAIoIe-31" value="" style="edgeStyle=orthogonalEdgeStyle;rounded=0;orthogonalLoop=1;jettySize=auto;html=1;endArrow=none;endFill=0;strokeColor=#B3B3B3;" edge="1" parent="1" source="3FT5CN3qB7AC9nDapubh-45" target="9WjfIcomwn0SEq8MoQgZ-37">
          <mxGeometry relative="1" as="geometry" />
        </mxCell>
        <mxCell id="3FT5CN3qB7AC9nDapubh-45" value="in altre lingue" style="shape=rhombus;perimeter=rhombusPerimeter;whiteSpace=wrap;html=1;align=center;" parent="1" vertex="1">
          <mxGeometry x="460" y="470" width="120" height="60" as="geometry" />
        </mxCell>
        <mxCell id="78NTTjYcPwEvx9lAIoIe-41" style="edgeStyle=orthogonalEdgeStyle;rounded=0;orthogonalLoop=1;jettySize=auto;html=1;entryX=0;entryY=0.25;entryDx=0;entryDy=0;endArrow=none;endFill=0;strokeColor=#B3B3B3;" edge="1" parent="1" source="3FT5CN3qB7AC9nDapubh-77" target="3FT5CN3qB7AC9nDapubh-80">
          <mxGeometry relative="1" as="geometry">
            <Array as="points">
              <mxPoint x="1460" y="400" />
              <mxPoint x="1460" y="585" />
            </Array>
          </mxGeometry>
        </mxCell>
        <mxCell id="3FT5CN3qB7AC9nDapubh-77" value="portato da" style="shape=rhombus;perimeter=rhombusPerimeter;whiteSpace=wrap;html=1;align=center;strokeColor=#000000;" parent="1" vertex="1">
          <mxGeometry x="1290" y="370" width="120" height="60" as="geometry" />
        </mxCell>
        <mxCell id="3FT5CN3qB7AC9nDapubh-80" value="Studio" style="whiteSpace=wrap;html=1;align=center;strokeColor=#000000;" parent="1" vertex="1">
          <mxGeometry x="1490" y="575" width="100" height="40" as="geometry" />
        </mxCell>
      </root>
    </mxGraphModel>
  </diagram>
</mxfile>
